<svg xmlns="http://www.w3.org/2000/svg" width="656" height="152" viewBox="0 0 656 152">
  <g id="logo-oficial" transform="translate(1 1)">
    <g id="Group_1" data-name="Group 1">
      <rect id="canvas_background" width="656" height="152" transform="translate(-1 -1)" fill="none"/>
    </g>
    <g id="Group_2" data-name="Group 2">
      <path id="svg_1" d="M543.8,74.1a.454.454,0,0,1,.5,0c.1.1.1.2.2.3a4.1,4.1,0,0,1,.1,1.1c0,6.3-6.1,7.6-11,7.6-11.7,0-20.5-7.7-20.5-19.8,0-11,6.9-18.7,18-18.7,8.8,0,14.9,5.5,14.9,14.3,0,.9-.1,1.8-.2,2.8l-23,3.2c.8,6.8,5.4,11.4,13.1,11.4,2.5-.1,5.7-.6,7.9-2.2M530.1,50.3c-5.4,0-7.2,3.9-7.6,8.9l13.7-2.1c.1-3.7-1.9-6.8-6.1-6.8" fill="#fa9c0e"/>
      <path id="svg_2" d="M295.8,74.1a.638.638,0,0,1,.6,0c.1.1.1.2.2.3a4.1,4.1,0,0,1,.1,1.1c0,6.3-6.1,7.6-11,7.6-11.8,0-20.5-7.7-20.5-19.8,0-11,6.8-18.8,17.9-18.8,8.8,0,15,5.5,15,14.3,0,.9-.1,1.8-.2,2.8l-23,3.2c.8,6.8,5.3,11.4,13.1,11.4a13.7,13.7,0,0,0,7.8-2.1M282.2,50.3c-5.4,0-7.1,3.9-7.5,8.9l13.7-2.1c0-3.7-2-6.8-6.2-6.8" fill="#fa9c0e"/>
      <path id="svg_3" d="M513.6,75.3a5.284,5.284,0,0,1,.1,1.3c0,4.8-5.1,6.4-9.1,6.4-7.6,0-12.5-4.5-12.5-12.4V52.3H488V45.6h4.2V38.4h10.1v7.2h9.9v6.7h-9.9v18c0,3.8,2.2,6,6.2,6A7.676,7.676,0,0,0,513,75a.6.6,0,0,1,.4-.1.758.758,0,0,1,.2.4" fill="#fa9c0e"/>
      <path id="svg_4" d="M353.7,75.3a5.283,5.283,0,0,1,.1,1.3c0,4.8-5.2,6.4-9.1,6.4-7.7,0-12.5-4.5-12.5-12.4V52.3H328V45.6h4.3V38.4h10.1v7.2h9.9v6.7h-9.9v18c0,3.8,2.2,6,6.1,6A7.467,7.467,0,0,0,353,75a.6.6,0,0,1,.4-.1c.2.1.2.3.3.4" fill="#fa9c0e"/>
      <path id="svg_5" d="M546.8,50.5c.5-3.6,3.5-5.4,6.9-5.4,4,0,6.8,2.4,6.8,6.6v1.4h.2c3-4.3,5.9-8.5,11.4-8.5a11.019,11.019,0,0,1,1.8.2l-.5,9.7a11.27,11.27,0,0,0-3.2-.5c-3.6,0-6.4,3-9.1,5.6V82H551V53.7c0-1.5-.5-3.2-2.3-3.2a3.194,3.194,0,0,0-1.4.3c-.1.1-.2,0-.4,0a.367.367,0,0,1-.1-.3" fill="#fa9c0e"/>
      <path id="svg_6" d="M612.7,76.7c.1-.1.2-.1.3.1.1.1.1.1.1.3-.3,3-2.8,5.4-6.8,5.4-4.7,0-7.3-3-7.3-8.1V57.5c0-2.6-1.6-3.9-3.6-3.9-3.7,0-6.8,3.6-8.9,5.8V82H576.3V45.6h10v6.9h.2c4.1-4.4,8.5-8,14.3-8a8.726,8.726,0,0,1,5.6,2c2.5,2.1,2.8,5.3,2.8,8.4v19c0,1.8.5,3.2,2.2,3.2a2.01,2.01,0,0,0,1.3-.4" fill="#fa9c0e"/>
      <path id="svg_7" d="M460.8,74.4a17.061,17.061,0,0,0,8.5,2.2c3.4,0,6-1.1,6-4,0-2.4-2.4-3.6-5.9-5.3-4.7-2.4-8.7-4.9-8.7-11.1,0-5.6,4.7-11.5,15.4-11.5a48.62,48.62,0,0,1,8,.7l-1.2,6.9a23.54,23.54,0,0,0-6.7-1c-3.7,0-5.7,1.5-5.7,3.6,0,2.2,2.7,3.6,6.1,5.3,4.5,2.2,8.9,4.8,8.9,11,0,4.9-3.8,11.9-15.1,11.9-6.5,0-10.3-2.4-10.3-7.2a4.1,4.1,0,0,1,.1-1.1c0-.1.1-.3.2-.3a.247.247,0,0,1,.4-.1" fill="#fa9c0e"/>
      <path id="svg_8" d="M300.9,74.4a16.788,16.788,0,0,0,8.5,2.2c3.3,0,6-1.1,6-4,0-2.4-2.4-3.6-5.8-5.3-4.8-2.4-8.7-4.9-8.7-11.1,0-5.5,4.6-11.5,15.3-11.5a47.641,47.641,0,0,1,8,.7L323,52.3a23.709,23.709,0,0,0-6.8-1c-3.7,0-5.6,1.5-5.6,3.6,0,2.2,2.6,3.6,6,5.3,4.6,2.2,8.9,4.8,8.9,11,0,4.9-3.7,11.9-15,11.9-6.6,0-10.3-2.4-10.3-7.2V74.8c0-.1.1-.3.2-.3s.3-.2.5-.1" fill="#fa9c0e"/>
      <path id="svg_9" d="M455.9,74.1a.454.454,0,0,1,.5,0c.1.1.1.2.2.3a4.1,4.1,0,0,1,.1,1.1c0,6.3-6.1,7.6-11,7.6-11.7,0-20.5-7.7-20.5-19.8,0-11,6.9-18.7,18-18.7,8.8,0,14.9,5.5,14.9,14.3,0,.9-.1,1.8-.2,2.8l-23,3.2c.8,6.8,5.4,11.4,13.1,11.4a15.233,15.233,0,0,0,7.9-2.2M442.2,50.3c-5.4,0-7.2,3.9-7.6,8.9l13.7-2.1c0-3.7-1.9-6.8-6.1-6.8" fill="#fa9c0e"/>
      <path id="svg_10" d="M237.7,82.7a72.667,72.667,0,0,1-13.9-1.3h-.3V35h.3a102.082,102.082,0,0,1,15.6-1.5h0c5.8,0,9.4.6,12.9,2.3a11.162,11.162,0,0,1,4.6,3.9,9.565,9.565,0,0,1,1.4,4.7,9.755,9.755,0,0,1-1.6,5.2,13.2,13.2,0,0,1-5.6,4.7,19.181,19.181,0,0,1,4.6,1.8,11.859,11.859,0,0,1,5.2,5.2,13.514,13.514,0,0,1,1.1,7.1,15.1,15.1,0,0,1-8.8,11.8,30.564,30.564,0,0,1-10.6,2.6,39.667,39.667,0,0,0-4.9-.1m-3.1-7.1a24.769,24.769,0,0,0,4.1.4,13.8,13.8,0,0,0,7.2-1.6,8.74,8.74,0,0,0,3.4-3.7,9.148,9.148,0,0,0,.9-5.2c-.3-3.3-2.5-5.7-6.1-6.7a17.045,17.045,0,0,0-4.1-.5,20.543,20.543,0,0,0-5.4.7V75.6Zm0-35.6V54.6c5.2-.4,7.8-1.5,9.9-2.9a7.276,7.276,0,0,0,3.6-5.7,4.908,4.908,0,0,0-1.1-3.5,8.068,8.068,0,0,0-4.4-2.4,17.092,17.092,0,0,0-4.2-.4,23.4,23.4,0,0,0-3.8.3" fill="#fa9c0e"/>
      <path id="svg_11" d="M408.6,40.6a3.539,3.539,0,0,1,1.9-.3c2.5.4,3.8,4.8,3.5,12.1A50.577,50.577,0,0,1,411.5,66a18.539,18.539,0,0,1-2.8,5.3,4.8,4.8,0,0,1-3.7,2.1h-.2a2.769,2.769,0,0,1-.9-.1l-5.8-39.2H386.7L391,60a32.5,32.5,0,0,1-2.3,8.2c-1.4,2.9-3,4.5-5,4.8-.3,0-.8.1-1.3.1h-.6l-5.7-39H364.7l7.9,47.8.2.1a17.262,17.262,0,0,0,4.5.5,13.7,13.7,0,0,0,3.6-.4,14.808,14.808,0,0,0,7.8-4.8,21.438,21.438,0,0,0,3.9-7.1L394.5,82h.2a20.013,20.013,0,0,0,5.1.6h1.3a14.747,14.747,0,0,0,8.1-2.4,18.437,18.437,0,0,0,6-6.1,40.034,40.034,0,0,0,5.5-13.4,63.015,63.015,0,0,0,1.7-14.4c0-4-.6-7.1-1.8-9.4a6.837,6.837,0,0,0-6.3-3.8,5.835,5.835,0,0,0-4.1,1.7A7.028,7.028,0,0,0,408,40c0,.1,0,.3.2.3.1.4.3.4.4.3" fill="#fa9c0e"/>
      <path id="svg_12" d="M291.3,128V115.9H279.9V128h-6V101.7h6v10.1h11.4V101.7h6V128Z" fill="#fa9c0e"/>
      <path id="svg_13" d="M311.5,128.7c-6.4,0-9.7-4.8-9.7-10.8,0-6.3,4-10.3,10.3-10.3,6,0,9.5,3.7,9.5,9.8s-3.6,11.3-10.1,11.3m.2-17.6c-3.4,0-4.1,3.5-4.1,6.2s.6,7.8,4.3,7.8c3.3,0,4.1-4.3,4.1-7.1-.1-2.8-.8-6.9-4.3-6.9" fill="#fa9c0e"/>
      <path id="svg_14" d="M502.1,128.7c-6.4,0-9.7-4.8-9.7-10.8,0-6.3,4-10.3,10.3-10.3,6,0,9.5,3.7,9.5,9.8s-3.6,11.3-10.1,11.3m.1-17.6c-3.4,0-4.1,3.5-4.1,6.2s.6,7.8,4.3,7.8c3.3,0,4.1-4.3,4.1-7.1s-.7-6.9-4.3-6.9" fill="#fa9c0e"/>
      <path id="svg_15" d="M355.9,123.7a.187.187,0,0,1,.3,0,.349.349,0,0,1,.1.2v.6c0,3.4-3.3,4.1-6,4.1-6.4,0-11.2-4.2-11.2-10.8,0-6,3.8-10.3,9.8-10.3,4.8,0,8.1,3,8.1,7.8a7.568,7.568,0,0,1-.1,1.5l-12.6,1.8c.4,3.7,2.9,6.2,7.1,6.2a7.933,7.933,0,0,0,4.5-1.1m-7.5-13c-2.9,0-3.9,2.2-4.1,4.8l7.5-1.1c0-2-1.1-3.7-3.4-3.7" fill="#fa9c0e"/>
      <path id="svg_16" d="M472.4,123.7a.187.187,0,0,1,.3,0,.349.349,0,0,1,.1.2v.6c0,3.4-3.3,4.1-6,4.1-6.4,0-11.2-4.2-11.2-10.8,0-6,3.8-10.3,9.8-10.3,4.8,0,8.1,3,8.1,7.8a7.568,7.568,0,0,1-.1,1.5l-12.6,1.8c.4,3.7,2.9,6.2,7.1,6.2a7.933,7.933,0,0,0,4.5-1.1m-7.5-13c-2.9,0-3.9,2.2-4.1,4.8l7.5-1.1c0-2-1.1-3.7-3.4-3.7" fill="#fa9c0e"/>
      <path id="svg_17" d="M338,124.3c0,.2.1.5.1.7,0,2.6-2.8,3.5-4.9,3.5-4.2,0-6.8-2.5-6.8-6.8v-10H324V108h2.3v-3.9h5.5V108h5.4v3.7h-5.4v9.8a3,3,0,0,0,3.3,3.3,3.793,3.793,0,0,0,2.4-.7c.1-.1.2-.1.2,0,.3.1.3.2.3.2" fill="#fa9c0e"/>
      <path id="svg_18" d="M545.4,124.3c0,.2.1.5.1.7,0,2.6-2.8,3.5-4.9,3.5-4.2,0-6.8-2.5-6.8-6.8v-10h-2.3V108h2.3v-3.9h5.5V108h5.4v3.7h-5.4v9.8a3,3,0,0,0,3.3,3.3,4.3,4.3,0,0,0,2.5-.7c.1-.1.2-.1.2,0a.31.31,0,0,1,.1.2" fill="#fa9c0e"/>
      <path id="svg_19" d="M514.7,110.8a3.5,3.5,0,0,1,3.7-3,3.388,3.388,0,0,1,3.7,3.6v.7h.1c1.6-2.4,3.2-4.7,6.2-4.7a3.752,3.752,0,0,1,1,.1l-.3,5.4a5.079,5.079,0,0,0-1.7-.3c-2,0-3.5,1.6-5,3V128h-5.5V112.6c0-.8-.3-1.7-1.2-1.7a2.353,2.353,0,0,0-.8.2h-.2c0-.2-.1-.3,0-.3" fill="#fa9c0e"/>
      <path id="svg_20" d="M370.5,123.8a8.766,8.766,0,0,0,4.6,1.2c1.8,0,3.3-.6,3.3-2.2,0-1.3-1.3-2-3.2-2.9-2.6-1.3-4.8-2.7-4.8-6.1,0-3,2.5-6.3,8.4-6.3a19.059,19.059,0,0,1,4.3.4l-.6,3.8a13.639,13.639,0,0,0-3.7-.6c-2,0-3.1.8-3.1,1.9,0,1.2,1.4,2,3.3,2.9,2.5,1.2,4.9,2.6,4.9,6,0,2.7-2,6.5-8.2,6.5-3.6,0-5.6-1.3-5.6-3.9v-.6a.349.349,0,0,1,.1-.2.774.774,0,0,0,.3.1" fill="#fa9c0e"/>
      <path id="svg_21" d="M476.2,123.8a8.766,8.766,0,0,0,4.6,1.2c1.8,0,3.3-.6,3.3-2.2,0-1.3-1.3-2-3.2-2.9-2.6-1.3-4.8-2.7-4.8-6.1,0-3,2.5-6.3,8.4-6.3a19.059,19.059,0,0,1,4.3.4l-.6,3.8a13.639,13.639,0,0,0-3.7-.6c-2,0-3.1.8-3.1,1.9,0,1.2,1.5,2,3.3,2.9,2.5,1.2,4.9,2.6,4.9,6,0,2.7-2,6.5-8.2,6.5-3.6,0-5.6-1.3-5.6-3.9v-.6c0-.1,0-.2.1-.2a.367.367,0,0,0,.3.1" fill="#fa9c0e"/>
      <path id="svg_22" d="M547.1,123.8a8.766,8.766,0,0,0,4.6,1.2c1.8,0,3.3-.6,3.3-2.2,0-1.3-1.3-2-3.2-2.9-2.6-1.3-4.8-2.7-4.8-6.1,0-3,2.5-6.3,8.4-6.3a18.5,18.5,0,0,1,4.3.4l-.6,3.8a13.64,13.64,0,0,0-3.7-.6c-2,0-3.1.8-3.1,1.9,0,1.2,1.4,2,3.3,2.9,2.5,1.2,4.9,2.6,4.9,6,0,2.7-2,6.5-8.2,6.5-3.6,0-5.6-1.3-5.6-3.9v-.6a.349.349,0,0,1,.1-.2.367.367,0,0,0,.3.1" fill="#fa9c0e"/>
      <path id="svg_23" d="M454.9,125h.2a.349.349,0,0,1,.1.2c-.2,2.2-2.1,3.1-4.2,3.1-5.4,0-8.4-5.6-10.3-11.6a19.269,19.269,0,0,1-2.4.1V128h-6V101.9c2.9-.1,5.8-.3,8.7-.3,4.8,0,10.5,1.2,10.6,7.1,0,3.5-2.6,5.9-5.5,7.1,1.9,3.6,5.5,9.3,8.1,9.3.2,0,.4-.1.7-.1m-14.7-20a13.553,13.553,0,0,0-2,.2v8.2a14.769,14.769,0,0,0,2.1.1c2.8,0,5.1-1.3,5.1-4.2,0-3.1-2.3-4.3-5.2-4.3" fill="#fa9c0e"/>
      <path id="svg_24" d="M411.3,113.5h-.2l-.1-.1c0-.2-.1-.4-.1-.6a2.764,2.764,0,0,1,3-2.7c3.2,0,5.1,2.9,5.1,6a10.706,10.706,0,0,1-2.8,7.1c1.8,1.6,3.7,3.2,5.6,4.7h-8a21.965,21.965,0,0,0-1.8-1.4,14.477,14.477,0,0,1-7.4,2.1c-4.6,0-9.2-3-9.2-7.9a7.5,7.5,0,0,1,4.3-6.9,8.744,8.744,0,0,1-2-5c0-5.1,4.8-7.4,9.1-7.4a29.223,29.223,0,0,1,5.1.4l-.6,4.2a11.476,11.476,0,0,0-3.7-.6c-2.3,0-4.1,1.2-4.1,3.6,0,3.1,6.6,8.9,9.9,11.8a6.4,6.4,0,0,0,.9-3.4c0-2.1-1-4-2.5-4a4.331,4.331,0,0,1-.5.1m-9.8,2.8a4.472,4.472,0,0,0-1.2,3.1c0,3.1,2.9,5.6,6.1,5.6a6.5,6.5,0,0,0,3.1-.8,74.473,74.473,0,0,1-8-7.9" fill="#fa9c0e"/>
      <path id="svg_25" d="M368,125.1c.1,0,.2-.1.2,0,.1,0,.1.1.1.2a3.4,3.4,0,0,1-3.7,2.9c-2.6,0-4-1.7-4-4.4V100h5.5v23.5c0,1,.3,1.8,1.2,1.8a1.854,1.854,0,0,0,.7-.2" fill="#fa9c0e"/>
      <path id="svg_26" d="M64.2,61.7a25.967,25.967,0,0,1,7.5,2.7c6.8,3.7,9.3,9.6,8.6,16.7-.7,6.9-5.4,12.8-12.1,16a42.3,42.3,0,0,1-14.6,3.6,104.149,104.149,0,0,1-25.9-1.5V35.3a147.508,147.508,0,0,1,21.8-2.1c7.5,0,12.7.8,17.7,3.1,6,2.8,8.1,7.6,8.1,11.6-.1,3.7-2.5,10-11.1,13.8m-16,30.7c5.1,0,7.9-1,10.2-2.4a13.228,13.228,0,0,0,6.2-12.7c-.5-5.1-3.9-8.4-8.8-9.8a28.25,28.25,0,0,0-13.8.3v24a30.337,30.337,0,0,0,6.2.6M42,62.6c7.7-.6,11.4-2.1,14.5-4.1,3.5-2.3,5.1-5.4,5.2-8.3.2-3.5-1.9-7.1-8.1-8.6A34.382,34.382,0,0,0,42,41.4V62.6Zm99.8-20.4a6.522,6.522,0,0,1,2.4-.2c4.1.7,5.6,7.6,5.3,17.3-.4,11.2-4.8,29.6-12.9,29.7a6.8,6.8,0,0,1-2-.2l-8.1-54.5h-15L117.4,70c-1.1,7.2-4.2,17.5-10.6,18.6a10.032,10.032,0,0,1-3,0l-8-54.4h-15L91.7,100a24.554,24.554,0,0,0,11.1.2c8.2-1.8,14.5-9.8,16.5-18.3l3,18.1a30.383,30.383,0,0,0,8.8.7c8.2-.1,14.8-4.6,19.3-11.5,7-10.6,9.9-25.9,9.9-38.4,0-10.3-3.1-18-10.8-18-3.9,0-8,3.2-8.4,8.7,0,.2,0,.3.2.4.2.3.3.3.5.3" fill="#fa9c0e"/>
      <path id="svg_27" d="M192.5,10.2c1.9,23.6,2.8,41.8,2.8,57,0,15.3-.9,33.4-2.8,57a.817.817,0,0,1-.9.8.882.882,0,0,1-.9-.8c-1.9-23.7-2.8-41.8-2.8-57s.8-33.4,2.8-57a.817.817,0,0,1,.9-.8,1.063,1.063,0,0,1,.9.8" fill="#fa9c0e"/>
      <path id="svg_28" d="M622.8,82.5a4.9,4.9,0,0,1,0-9.8,4.741,4.741,0,0,1,4.7,4.9,4.682,4.682,0,0,1-4.7,4.9m0-9.1a4.266,4.266,0,1,0,3.9,4.2,3.98,3.98,0,0,0-3.9-4.2m-.2,4.5h-.7v2.8h-1V74.4c.6,0,1.1-.1,1.7-.1,1.1,0,2.4.3,2.4,1.6a1.737,1.737,0,0,1-1.3,1.7c.7,1.3,1.3,2.3,1.8,2.3h.3V80c0,.3-.2.6-.7.6-1.3.1-1.9-1.2-2.5-2.7m-.3-2.9h-.5v2.2h.6c.7,0,1.4-.3,1.4-1.1s-.7-1.1-1.5-1.1" fill="#fa9c0e"/>
    </g>
  </g>
</svg>
